# xmcd CD database file
#
# Track frame offsets:
#	187
#	25502
#	47357
#	72162
#	100110
#	122335
#	143080
#	166972
#	184815
#	212837
#	239700
#
# Disc length: 3549 seconds
#
# Revision: 3
# Processed by: cddbd v1.5.2PL0 Copyright (c) Steve Scherf et al.
# Submitted via: CDex 1.70beta3
#
DISCID=8e0ddb0b
DTITLE=渡辺貞夫 - スーパー・セレクション ディスク： 2
DYEAR=0
DGENRE=Jazz
TTITLE0=カリフォルニア・シャワー
TTITLE1=ナイス・ショット!
TTITLE2=インナー・エムブレイス
TTITLE3=サンバ・ド・マルコス
TTITLE4=セレナーデ
TTITLE5=モーニング・アイランド
TTITLE6=セヴンス・ハイ
TTITLE7=風の想い出
TTITLE8=ダウン・イースト
TTITLE9=ホーム・ミーティング
TTITLE10=マイ・ディア・ライフ
EXTD=YEAR: 0
EXTT0=
EXTT1=
EXTT2=
EXTT3=
EXTT4=
EXTT5=
EXTT6=
EXTT7=
EXTT8=
EXTT9=
EXTT10=
PLAYORDER=
